<?xml version="1.0" encoding="utf-8"?>
<svg xmlns="http://www.w3.org/2000/svg" version="1.1" width="1000" height="800">

<circle cx="100" cy="100" r="20" fill="black" />
<text x="100" y="100" fill="white" >0</text>
<circle cx="400" cy="100" r="20" fill="black" />
<text x="400" y="100" fill="white" >1</text>
<circle cx="200" cy="200" r="20" fill="black" />
<text x="200" y="200" fill="white" >2</text>
<circle cx="300" cy="200" r="20" fill="black" />
<text x="300" y="200" fill="white" >3</text>
<circle cx="200" cy="300" r="20" fill="black" />
<text x="200" y="300" fill="white" >4</text>
<circle cx="300" cy="300" r="20" fill="black" />
<text x="300" y="300" fill="white" >5</text>
<circle cx="100" cy="400" r="20" fill="black" />
<text x="100" y="400" fill="white" >6</text>
<circle cx="400" cy="400" r="20" fill="black" />
<text x="400" y="400" fill="white" >7</text>
<line x1="300" y1="200" x2="300" y2="300" stroke="black" />
<line x1="100" y1="100" x2="100" y2="400" stroke="black" />
<line x1="200" y1="300" x2="100" y2="400" stroke="black" />
<line x1="300" y1="300" x2="400" y2="400" stroke="black" />
<line x1="100" y1="400" x2="400" y2="400" stroke="black" />
<line x1="100" y1="100" x2="400" y2="100" stroke="black" />
<line x1="200" y1="300" x2="300" y2="300" stroke="black" />
<line x1="200" y1="200" x2="300" y2="200" stroke="black" />
<line x1="400" y1="100" x2="400" y2="400" stroke="black" />
<line x1="400" y1="100" x2="300" y2="200" stroke="black" />
<line x1="100" y1="100" x2="200" y2="200" stroke="black" />
<line x1="200" y1="200" x2="200" y2="300" stroke="black" />
<circle cx="600" cy="100" r="20" fill="black" />
<text x="600" y="100" fill="white" >0</text>
<circle cx="900" cy="100" r="20" fill="black" />
<text x="900" y="100" fill="white" >1</text>
<circle cx="700" cy="200" r="20" fill="black" />
<text x="700" y="200" fill="white" >2</text>
<circle cx="800" cy="200" r="20" fill="black" />
<text x="800" y="200" fill="white" >3</text>
<circle cx="700" cy="300" r="20" fill="black" />
<text x="700" y="300" fill="white" >4</text>
<circle cx="800" cy="300" r="20" fill="black" />
<text x="800" y="300" fill="white" >5</text>
<circle cx="600" cy="400" r="20" fill="black" />
<text x="600" y="400" fill="white" >6</text>
<circle cx="900" cy="400" r="20" fill="black" />
<text x="900" y="400" fill="white" >7</text>
<line x1="800" y1="200" x2="800" y2="300" stroke="black" />
<line x1="600" y1="100" x2="600" y2="400" stroke="black" />
<line x1="700" y1="300" x2="600" y2="400" stroke="black" />
<line x1="800" y1="300" x2="900" y2="400" stroke="black" />
<line x1="600" y1="400" x2="900" y2="400" stroke="black" />
<line x1="600" y1="100" x2="900" y2="100" stroke="black" />
<line x1="700" y1="200" x2="800" y2="200" stroke="black" />


</svg>
